PathFileType	4	(X/Y/Z)	C:\Users\ebm\Documents\Erivelton\Erivelton2\wc9.trc
DataRate	CameraRate	NumFrames	NumMarkers	Units	OrigDataRate	OrigDataStartFrame	OrigNumFrames
150.00	150.00	      13	28	mm	150.00	647	      1293
Frame#	Time	IJ			PX			C7			T8			RAC			RAS			RPS			RAI			RPI			RLE			RME			RRS			RUS			R3M			R5M			LAC			LAS			LPS			LAI			LPI			LLE			LME			LRS			LUS			L3M			L5M			RW			LW			V_mid_elbow_r			V_mid_elbow_l			V_mid_wrist_r			V_mid_wrist_l			V_mid_trunk_low			V_mid_trunk_upp			
		X1	Y1	Z1	X2	Y2	Z2	X3	Y3	Z3	X4	Y4	Z4	X5	Y5	Z5	X6	Y6	Z6	X7	Y7	Z7	X8	Y8	Z8	X9	Y9	Z9	X10	Y10	Z10	X11	Y11	Z11	X12	Y12	Z12	X13	Y13	Z13	X14	Y14	Z14	X15	Y15	Z15	X16	Y16	Z16	X17	Y17	Z17	X18	Y18	Z18	X19	Y19	Z19	X20	Y20	Z20	X21	Y21	Z21	X22	Y22	Z22	X23	Y23	Z23	X24	Y24	Z24	X25	Y25	Z25	X26	Y26	Z26	X27	Y27	Z27	X28	Y28	Z28	

647	4.307	484.66266	1041.71814	47.10606	498.43561	872.55133	80.93446	348.76169	1130.99683	35.27702	281.35190	981.56366	55.74902	423.25812	1091.13025	248.65956	506.72910	910.78827	290.43066	465.69864	901.02765	317.62155	540.63007	841.38263	303.16055	498.28140	828.45123	332.80225	537.86603	769.35095	331.79672	492.72766	738.29102	273.03308	738.78333	741.42017	140.99789	750.00848	722.64038	200.28685	822.55890	710.51917	149.45813	813.54724	696.70343	186.27065	394.71219	1059.96216	-141.54163	461.44604	899.84265	-202.45740	419.23618	875.48157	-203.77997	507.07779	834.88867	-211.03763	461.20294	803.10919	-213.03595	547.03052	752.53723	-217.94066	502.65363	715.50867	-169.06123	751.05505	725.26978	-41.55523	768.01532	693.44934	-96.97939	839.24982	692.68372	-60.03717	818.10883	673.06830	-92.28423	404.05640	296.86200	400.23694	438.46036	299.27591	-228.60912	
648	4.313	492.29758	1041.76807	47.57557	506.08664	872.62280	81.37772	356.41928	1130.98645	35.66117	288.98660	981.52307	56.09747	430.76028	1091.09546	249.05109	514.28027	910.79370	290.88370	473.20700	901.03589	318.02841	548.15784	841.42712	303.63116	505.81989	828.42041	333.21353	545.41772	769.35376	332.24121	500.33578	738.27332	273.41821	746.38519	741.46075	141.60349	757.65961	722.68896	200.84914	830.19177	710.54749	150.02580	821.21198	696.51343	186.80417	402.42236	1059.98608	-141.20203	469.28986	899.96686	-202.10315	427.03793	875.55237	-203.51190	514.68982	834.82568	-210.27046	469.18399	803.15070	-212.74673	554.94598	752.66254	-217.58592	510.66956	715.59753	-168.77286	758.89551	725.34320	-41.04660	775.76532	693.50610	-96.53302	846.95929	692.73920	-59.50174	825.93390	673.09851	-91.68874	411.41098	296.96124	400.58359	446.25131	299.34998	-228.14221	
649	4.320	499.90634	1041.79578	47.92970	513.77637	872.60638	81.81957	363.99301	1131.02661	36.00747	296.65332	981.48236	56.43445	438.38010	1091.02332	249.43079	521.68127	910.81641	291.35184	480.76285	901.06677	318.41855	555.69208	841.46320	303.97156	513.35168	828.39893	333.59912	552.97369	769.39337	332.66299	507.93170	738.29144	273.82297	754.07990	741.46692	142.14723	765.27643	722.72412	201.30241	837.92767	710.55316	150.54553	828.89301	696.54694	187.33067	410.09967	1059.96411	-140.78743	477.09479	900.02820	-201.69386	434.80792	875.69580	-203.06987	522.47980	834.95313	-209.87166	476.97769	803.28070	-212.37280	562.77258	752.82434	-217.23708	518.47662	715.74091	-168.51395	766.65546	725.43158	-40.59699	783.58453	693.60840	-96.01238	854.72864	692.78094	-58.89868	833.69574	673.15332	-91.15874	419.00418	296.94046	401.00549	454.09702	299.30508	-227.74838	
650	4.327	507.54779	1041.84241	48.37772	521.46747	872.65393	82.22449	371.63654	1131.03748	36.37491	304.28738	981.45081	56.75936	445.90576	1091.03223	249.82339	529.31757	910.81464	291.71619	488.27951	901.06458	318.85367	563.23608	841.50146	304.40768	520.92047	828.37585	333.98105	560.48615	769.44714	333.09235	515.51312	738.29712	274.22421	761.70166	741.53033	142.60722	772.89319	722.76794	201.94234	845.47675	710.28253	151.08904	836.44073	696.69965	187.99529	417.75461	1060.00439	-140.41014	484.94150	900.12152	-201.31010	442.68515	875.67407	-202.72499	530.57758	835.29138	-209.94882	484.76706	803.38562	-212.02383	570.60999	753.01080	-216.91635	526.20789	715.84137	-168.26216	774.40942	725.53906	-40.10493	791.27161	693.64862	-95.51609	862.42694	692.85950	-58.33932	841.44830	673.23206	-90.62057	426.44727	296.98895	401.42593	461.85306	299.39651	-227.29066	
651	4.333	515.18005	1041.84790	48.78338	529.22168	872.79688	82.57483	379.59113	1130.52148	36.67264	311.81137	981.44818	57.09420	453.26031	1091.10388	250.22275	536.81329	910.85315	292.09344	495.84732	901.04584	319.23181	570.80060	841.51410	304.85809	528.27917	828.48816	334.52945	568.02960	769.47375	333.52838	523.10828	738.34009	274.63791	769.43469	741.63397	143.16689	780.55182	722.78876	202.40717	853.16284	710.37903	151.67982	844.07782	696.76556	188.53520	425.39899	1060.07861	-140.03891	492.59286	900.22369	-200.94540	450.41138	875.86633	-202.34654	538.28333	835.39929	-209.53885	492.55249	803.45209	-211.71877	578.53351	753.18494	-216.48964	534.11810	715.92267	-167.97740	782.12921	725.58038	-39.64812	799.10730	693.69000	-94.93696	870.21832	692.91138	-57.77061	849.11615	673.22882	-90.07072	434.03265	297.00491	401.82352	469.62335	299.50998	-226.85733	
652	4.340	522.80054	1041.89380	49.23401	536.65576	872.83466	83.05883	387.19431	1130.52771	36.98815	319.47772	981.41058	57.44867	460.80606	1091.10791	250.67448	544.32458	910.89386	292.53207	503.34286	901.08014	319.64383	578.29205	841.57367	305.29300	535.96808	828.44104	334.94193	575.55115	769.46057	333.93683	530.64233	738.39404	275.03494	777.04156	741.63324	143.79393	788.13599	722.85168	202.96817	860.79144	710.68567	152.28851	851.65759	696.86102	189.12997	433.03082	1060.15869	-139.64154	500.29294	900.34143	-200.58064	458.14139	875.85468	-201.88625	545.99237	835.73193	-209.02013	500.36249	803.61255	-211.30983	586.32294	753.31146	-216.12167	541.87573	716.04187	-167.66840	789.98151	725.66296	-39.22883	806.83759	693.71991	-94.45012	877.91577	692.90979	-57.20305	856.82935	673.32910	-89.55124	441.58994	297.04712	402.22134	477.45480	299.52484	-226.50800	
653	4.347	530.31555	1041.91199	49.66696	544.18054	872.89691	83.54266	394.74637	1130.58093	37.34747	327.08365	981.37860	57.81828	468.30603	1091.09937	251.04849	551.81226	910.94061	293.03232	510.79639	901.07587	320.05115	585.83203	841.61328	305.69495	543.34253	828.73779	335.41205	583.13373	769.53052	334.39606	538.17139	738.43835	275.48392	784.63440	741.78412	144.39001	795.68304	722.93182	203.55052	868.30243	710.73499	152.86903	859.25769	696.65845	189.62944	440.67783	1060.19885	-139.23897	507.98346	900.41083	-200.23798	465.86978	875.89600	-201.53334	553.69763	835.78729	-208.58574	508.02237	803.68964	-210.93277	594.12408	753.41455	-215.71306	549.63055	716.17053	-167.28976	797.68219	725.77020	-38.72233	814.49780	693.77521	-93.87915	885.62396	692.96478	-56.63599	864.58398	673.33044	-88.97040	449.29236	297.01382	402.63708	485.29770	299.52124	-226.05362	
654	4.353	537.86835	1041.91089	50.12918	551.86188	873.00763	83.99202	402.34088	1130.61365	37.69596	334.71252	981.37488	58.14918	475.57996	1091.23450	251.44125	559.36304	910.84479	293.40659	518.19324	901.12152	320.51837	593.32867	841.95343	306.37863	550.84644	828.64807	335.77722	590.55872	769.61383	334.88751	545.69727	738.47754	275.93195	792.23389	741.83923	144.92302	803.26257	722.96490	204.12776	875.97168	710.86371	153.46471	866.91650	696.84222	190.28682	448.34094	1060.26160	-138.86316	515.66455	900.52594	-199.82761	473.52747	876.02313	-201.14323	561.57611	835.74554	-208.51965	515.81146	803.75122	-210.54584	601.89691	753.57837	-215.25876	557.41876	716.23755	-166.95457	805.42438	725.79797	-38.29974	822.21069	693.79761	-93.33067	893.29926	693.04675	-56.09801	872.27502	673.37061	-88.37909	456.82407	297.04700	403.11731	493.14087	299.52802	-225.59322	
655	4.360	545.54303	1041.92603	50.51776	559.45258	873.01233	84.35773	409.95139	1130.63074	38.07236	342.23904	981.37128	58.53175	483.22079	1091.10718	251.83955	566.80627	911.05579	293.83786	525.71661	901.24292	321.08981	600.79248	842.01941	306.84738	558.35785	828.65521	336.18024	598.05829	769.70331	335.37512	553.26617	738.51526	276.40439	799.78351	741.95898	145.44684	810.85297	723.04309	204.71796	883.54993	710.92090	153.99803	874.42175	696.93219	190.81114	455.98468	1060.31189	-138.45172	523.39233	900.58112	-199.42212	481.19684	875.97363	-200.76463	569.17242	835.80273	-208.05386	523.48712	803.90448	-210.14363	609.69641	753.68420	-214.88133	565.10040	716.34778	-166.57913	813.12231	725.81860	-37.75707	829.94489	693.83606	-92.80024	901.02905	693.09393	-55.53661	879.88586	673.39221	-87.86542	464.28696	297.06119	403.52725	500.93390	299.57010	-225.20497	
656	4.367	553.09924	1041.97131	50.93761	567.00946	873.07092	84.77489	417.57327	1130.64844	38.40692	349.83701	981.33917	58.86584	490.67902	1091.19690	252.25026	574.24811	911.11469	294.31210	533.15192	901.30151	321.49139	608.30060	841.97559	307.12576	565.85413	828.69788	336.63031	605.54913	769.72028	335.81842	560.76959	738.59454	276.88480	807.47449	742.04132	145.97107	818.37341	723.16998	205.21417	891.09528	710.71716	154.52467	881.99622	697.04449	191.37964	463.62018	1060.29749	-138.07945	530.99829	900.63617	-199.07486	488.89319	876.16724	-200.40701	576.94153	836.15387	-207.74190	531.22034	803.90753	-209.72565	617.41803	753.77240	-214.43839	572.85907	716.46216	-166.15857	820.89996	725.88660	-37.35232	837.58191	693.82324	-92.32253	908.61591	693.14075	-54.94083	887.70142	673.40338	-87.32605	471.92630	297.01187	403.91248	508.76001	299.64551	-224.73720	
657	4.373	560.61450	1041.95959	51.43177	574.73083	873.14252	85.19698	425.09848	1130.68127	38.81544	357.46140	981.30145	59.22709	498.18021	1091.25964	252.65393	581.69507	911.19775	294.83914	540.62830	901.34906	322.02481	615.75085	842.01678	307.63367	573.26251	828.82349	337.33154	613.01208	769.81958	336.28696	568.21222	738.70276	277.36026	814.95752	742.17908	146.57207	825.86719	723.28851	205.79774	898.68085	711.02191	155.07542	889.56403	697.18231	191.86325	471.23697	1060.39050	-137.70444	538.65729	900.71051	-198.70210	496.56766	876.14374	-200.01086	584.62042	836.20355	-207.25508	538.89435	803.96143	-209.34779	625.10870	753.87061	-214.02124	580.52734	716.53870	-165.76514	828.61432	725.98566	-36.91161	845.29620	693.85895	-91.80819	916.33044	693.21710	-54.36707	895.25244	673.44312	-86.88417	479.47678	297.01312	404.36148	516.55695	299.66962	-224.24681	
658	4.380	568.15881	1042.00769	51.85757	582.23346	873.17175	85.62540	432.66354	1130.69971	39.15043	364.95236	981.26569	59.57017	505.63104	1091.27576	253.01900	589.22583	911.21478	295.29694	548.00525	901.36987	322.46661	623.22681	842.09119	308.13397	580.66113	828.98511	337.73721	620.54517	769.88708	336.74625	575.80737	738.71362	277.80734	822.51392	742.17432	147.05292	833.43524	723.34467	206.30191	906.12775	711.11975	155.65462	897.12152	697.32245	192.46320	478.87540	1060.43762	-137.27756	546.32953	900.76025	-198.25914	504.18600	876.20001	-199.61093	592.27850	836.23370	-206.76213	546.51172	804.05914	-208.93849	632.83777	753.98792	-213.58714	588.21954	716.60858	-165.36441	836.32733	726.10907	-36.51118	852.92224	693.88177	-91.32935	924.00922	693.29816	-53.85158	902.94836	673.47650	-86.27179	486.96545	297.01840	404.80508	524.36462	299.62677	-223.85698	
659	4.387	575.74219	1042.00098	52.31085	589.97375	873.20251	86.03864	440.23724	1130.69275	39.51207	372.52719	981.20581	59.93336	513.09161	1091.26758	253.43878	596.61517	911.27277	295.72369	555.48798	901.38257	322.89664	630.76971	842.35382	308.71082	588.16479	828.99658	338.17160	627.98743	769.96356	337.21872	583.28418	738.76068	278.24243	829.97156	742.24567	147.59575	840.99365	723.40289	206.86559	913.79358	711.14160	156.09798	904.63806	697.10553	192.92114	486.39822	1060.49646	-136.89125	554.00421	900.83228	-197.87654	511.93634	876.31708	-199.30920	600.09979	836.19897	-206.57091	554.29480	804.06506	-208.54318	640.49530	754.01910	-213.18251	595.85626	716.71594	-164.92632	844.02466	726.14966	-36.05492	860.61035	693.89166	-90.79477	931.76208	693.33112	-53.32155	910.56281	673.50586	-85.83092	494.47330	297.04196	405.21643	532.12799	299.64777	-223.47171	
